<svg width="469" height="100" viewBox="0 0 469 100" fill="none" xmlns="http://www.w3.org/2000/svg">
<g clip-path="url(#clip0_130_666)">
<path d="M105.019 73.48C104.779 56.44 135.899 55.56 135.899 37.16C135.899 28.6 129.099 22.44 118.939 22.44C108.379 22.44 100.699 29.16 100.459 40.52H104.139C104.299 31.24 110.539 25.8 118.939 25.8C126.939 25.8 132.219 30.68 132.219 37.32C132.219 53.4 101.339 54.12 101.339 73.72V79H135.899V75.64H105.019V73.48ZM162.844 79.56C175.324 79.56 183.324 68.36 183.324 50.84C183.324 33.48 175.404 22.44 162.924 22.44C150.444 22.44 142.444 33.48 142.444 50.84C142.444 68.36 150.364 79.56 162.844 79.56ZM162.844 76.2C152.764 76.2 146.284 66.28 146.284 50.84C146.284 35.56 152.764 25.8 162.844 25.8C173.004 25.8 179.484 35.56 179.484 50.84C179.484 66.28 173.004 76.2 162.844 76.2ZM192.509 79L206.269 60.12L220.029 79H224.269L208.589 57.56L223.629 36.6H219.469L206.269 55.16L193.069 36.6H188.909L204.109 57.56L188.269 79H192.509ZM235.864 79.56C238.024 79.56 239.624 77.96 239.624 75.8C239.624 73.64 238.024 71.96 235.864 71.96C233.704 71.96 232.024 73.64 232.024 75.8C232.024 77.96 233.704 79.56 235.864 79.56ZM256.717 79V53.32C256.797 47.8 260.957 43.56 267.357 43.56C272.397 43.56 275.517 46.68 275.517 51.4V79H284.957V50.92C284.957 41.4 279.037 35.32 269.997 35.32C264.477 35.32 259.597 37.64 256.717 41.16V19H247.277V79H256.717ZM311.192 80.2C321.192 80.2 328.312 74.68 330.472 65.56H321.272C319.832 69.8 316.152 72.2 311.272 72.2C304.072 72.2 299.432 67.16 298.792 59.72H330.632V57.48C330.392 43.72 322.392 35.32 310.392 35.32C298.552 35.32 289.352 43.96 289.352 57.96C289.352 70.92 298.232 80.2 311.192 80.2ZM299.192 53.08C300.632 47 304.792 43.32 310.392 43.32C315.912 43.32 319.672 47 320.872 53.08H299.192ZM349.598 79.88C356.798 79.88 361.438 77.16 363.918 72.6C363.998 73.08 364.158 73.64 364.318 74.04C365.038 77.24 367.678 79 371.998 79H376.478V71.64H374.158C372.718 71.64 372.078 71 372.078 69.8V50.6C372.078 41.56 365.758 35.32 354.318 35.32C343.358 35.32 335.358 41.56 334.478 50.52H343.998C344.558 46.12 348.558 43.08 354.158 43.08C359.598 43.08 362.798 45.8 362.878 49.96C362.798 53.32 358.078 53.56 351.678 54.28C343.438 55.24 333.598 57.32 333.518 67.24C333.438 75.16 339.838 79.88 349.598 79.88ZM351.518 72.44C345.998 72.44 343.038 70.28 343.038 66.6C343.038 62.12 347.438 61.4 352.718 60.76C357.198 60.2 361.278 59.64 362.878 57.16V63.08C362.878 68.76 357.998 72.44 351.518 72.44ZM389.908 79V19H380.468V79H389.908ZM421.603 79V71H416.803C413.283 71 411.443 69 411.443 65.4V44.6H422.403V36.6H411.443V22.12H402.003V36.6H394.563V44.6H402.003V66.04C402.003 74.44 406.963 79 416.163 79H421.603ZM436.514 79V53.32C436.594 47.8 440.754 43.56 447.154 43.56C452.194 43.56 455.314 46.68 455.314 51.4V79H464.754V50.92C464.754 41.4 458.834 35.32 449.794 35.32C444.274 35.32 439.394 37.64 436.514 41.16V19H427.074V79H436.514Z" fill="black"/>
<ellipse cx="43.5789" cy="23.1333" rx="5.10613" ry="5.10611" transform="rotate(30 43.5789 23.1333)" fill="black"/>
<ellipse cx="28.1385" cy="77.1098" rx="5.10613" ry="5.10611" transform="rotate(30 28.1385 77.1098)" fill="black"/>
<ellipse cx="8.87093" cy="42.4009" rx="5.10613" ry="5.10611" transform="rotate(30 8.87093 42.4009)" fill="black"/>
<ellipse cx="63.1585" cy="59.0044" rx="5.10613" ry="5.10611" transform="rotate(30 63.1585 59.0044)" fill="black"/>
<ellipse cx="32.7211" cy="19.8126" rx="4.25511" ry="4.25509" transform="rotate(30 32.7211 19.8126)" fill="black"/>
<ellipse cx="51.8827" cy="30.8756" rx="4.25511" ry="4.25509" transform="rotate(30 51.8827 30.8756)" fill="black"/>
<ellipse cx="66.1669" cy="46.9844" rx="4.25511" ry="4.25509" transform="rotate(30 66.1669 46.9844)" fill="black"/>
<ellipse cx="54.2533" cy="67.6202" rx="4.25511" ry="4.25509" transform="rotate(30 54.2533 67.6202)" fill="black"/>
<ellipse cx="38.9964" cy="80.4302" rx="4.25511" ry="4.25509" transform="rotate(30 38.9964 80.4302)" fill="black"/>
<ellipse cx="19.0965" cy="68.9415" rx="4.25511" ry="4.25509" transform="rotate(30 19.0965 68.9415)" fill="black"/>
<ellipse cx="4.81237" cy="52.8336" rx="4.25511" ry="4.25509" transform="rotate(30 4.81237 52.8336)" fill="black"/>
<ellipse cx="16.3011" cy="32.9337" rx="4.25511" ry="4.25509" transform="rotate(30 16.3011 32.9337)" fill="black"/>
<ellipse cx="22.3729" cy="20.7165" rx="3.40408" ry="3.40408" transform="rotate(30 22.3729 20.7165)" fill="black"/>
<ellipse cx="26.0272" cy="29.7052" rx="3.40408" ry="3.40408" transform="rotate(30 26.0272 29.7052)" fill="black"/>
<ellipse cx="15.4423" cy="59.9528" rx="3.40408" ry="3.40408" transform="rotate(30 15.4423 59.9528)" fill="black"/>
<ellipse cx="6.87929" cy="62.8703" rx="3.40408" ry="3.40408" transform="rotate(30 6.87929 62.8703)" fill="black"/>
<ellipse cx="49.3446" cy="79.5265" rx="3.40408" ry="3.40408" transform="rotate(30 49.3446 79.5265)" fill="black"/>
<ellipse cx="65.5746" cy="37.798" rx="3.40408" ry="3.40408" transform="rotate(30 65.5746 37.798)" fill="black"/>
<ellipse cx="56.2753" cy="40.2902" rx="3.40408" ry="3.40408" transform="rotate(30 56.2753 40.2902)" fill="black"/>
<ellipse cx="46.0018" cy="71.6999" rx="3.40408" ry="3.40408" transform="rotate(30 46.0018 71.6999)" fill="black"/>
<ellipse cx="15.2833" cy="24.4858" rx="1.7025" ry="1.7025" transform="rotate(30 15.2833 24.4858)" fill="black"/>
<ellipse cx="61.8072" cy="30.7094" rx="1.7025" ry="1.7025" transform="rotate(30 61.8072 30.7094)" fill="black"/>
<ellipse cx="57.1705" cy="76.1836" rx="1.7025" ry="1.7025" transform="rotate(30 57.1705 76.1836)" fill="black"/>
<ellipse cx="37.9781" cy="71.9819" rx="1.7025" ry="1.7025" transform="rotate(30 37.9781 71.9819)" fill="black"/>
<ellipse cx="10.2228" cy="70.6972" rx="1.7025" ry="1.7025" transform="rotate(30 10.2228 70.6972)" fill="black"/>
<ellipse cx="14.736" cy="52.667" rx="1.7025" ry="1.7025" transform="rotate(30 14.736 52.667)" fill="black"/>
<ellipse cx="34.0504" cy="29.4253" rx="1.7025" ry="1.7025" transform="rotate(30 34.0504 29.4253)" fill="black"/>
<ellipse cx="57.2931" cy="48.7392" rx="1.7025" ry="1.7025" transform="rotate(30 57.2931 48.7392)" fill="black"/>
<ellipse cx="11.2559" cy="28.0564" rx="0.85125" ry="0.851248" transform="rotate(30 11.2559 28.0564)" fill="black"/>
<ellipse cx="13.793" cy="74.7243" rx="0.85125" ry="0.851248" transform="rotate(30 13.793 74.7243)" fill="black"/>
<ellipse cx="16.2398" cy="46.657" rx="0.85125" ry="0.851248" transform="rotate(30 16.2398 46.657)" fill="black"/>
<ellipse cx="32.7051" cy="70.9026" rx="0.85125" ry="0.851248" transform="rotate(30 32.7051 70.9026)" fill="black"/>
<ellipse cx="56.2139" cy="54.0124" rx="0.85125" ry="0.851248" transform="rotate(30 56.2139 54.0124)" fill="black"/>
<ellipse cx="39.3243" cy="30.5032" rx="0.85125" ry="0.851248" transform="rotate(30 39.3243 30.5032)" fill="black"/>
<ellipse cx="58.6607" cy="25.9451" rx="0.85125" ry="0.851248" transform="rotate(30 58.6607 25.9451)" fill="black"/>
<ellipse cx="60.0352" cy="72.9241" rx="0.85125" ry="0.851248" transform="rotate(30 60.0352 72.9241)" fill="black"/>
</g>
<defs>
<clipPath id="clip0_130_666">
<rect width="469" height="100" fill="white"/>
</clipPath>
</defs>
</svg>
